<svg xmlns="http://www.w3.org/2000/svg" width="1200" height="750" viewBox="0 0 1200 750">
  <rect width="1200" height="750" fill="#1e1e2e"/>
  <rect x="340" y="90" width="520" height="620" rx="18" fill="#2a2a3c" stroke="#3a3a55" stroke-width="2"/>
  <rect x="380" y="140" width="440" height="30" rx="8" fill="#f5b301" opacity="0.9"/>
  <rect x="380" y="190" width="440" height="52" rx="10" fill="#3a3a55"/>
  <rect x="410" y="210" width="300" height="12" rx="6" fill="#c8c8dd"/>
  <circle cx="770" cy="216" r="12" fill="#f5b301"/>
  <rect x="380" y="262" width="440" height="52" rx="10" fill="#3a3a55"/>
  <rect x="410" y="282" width="260" height="12" rx="6" fill="#c8c8dd"/>
  <circle cx="770" cy="288" r="12" fill="#f5b301"/>
  <rect x="380" y="334" width="440" height="52" rx="10" fill="#3a3a55"/>
  <rect x="410" y="354" width="280" height="12" rx="6" fill="#c8c8dd"/>
  <circle cx="770" cy="360" r="12" fill="#f5b301"/>
  <rect x="380" y="406" width="440" height="52" rx="10" fill="#3a3a55"/>
  <rect x="410" y="426" width="240" height="12" rx="6" fill="#c8c8dd"/>
  <circle cx="770" cy="432" r="12" fill="#f5b301"/>
  <rect x="380" y="500" width="180" height="46" rx="23" fill="#f5b301"/>
  <rect x="640" y="500" width="180" height="46" rx="23" fill="#3a3a55"/>
  <text x="640" y="600" text-anchor="middle" font-family="Segoe UI, sans-serif" font-size="34" fill="#c8c8dd" font-weight="600">Settings — screenshot placeholder</text>
  <text x="640" y="642" text-anchor="middle" font-family="Segoe UI, sans-serif" font-size="20" fill="#8a8aa5">Replace assets/screenshots/settings.svg with your capture</text>
</svg>
